<svg width="871" height="609" viewBox="0 0 871 609" fill="none" xmlns="http://www.w3.org/2000/svg">
<g clip-path="url(#clip0_1_678)">
<path d="M367.841 570.173C570.994 570.173 735.682 561.843 735.682 551.568C735.682 541.293 570.994 532.963 367.841 532.963C164.688 532.963 0 541.293 0 551.568C0 561.843 164.688 570.173 367.841 570.173Z" fill="#3F3D56"/>
<path d="M727.063 590.508C806.557 590.508 871 587.248 871 583.227C871 579.207 806.557 575.947 727.063 575.947C647.568 575.947 583.125 579.207 583.125 583.227C583.125 587.248 647.568 590.508 727.063 590.508Z" fill="#3F3D56"/>
<path d="M320.188 609C399.682 609 464.125 605.74 464.125 601.72C464.125 597.699 399.682 594.439 320.188 594.439C240.693 594.439 176.25 597.699 176.25 601.72C176.25 605.74 240.693 609 320.188 609Z" fill="#3F3D56"/>
<path d="M673.5 382.966L686.415 373.984L713.182 339.509C713.945 338.526 714.287 337.28 714.132 336.045C713.977 334.81 713.338 333.687 712.355 332.923C711.373 332.159 710.127 331.817 708.893 331.972C707.658 332.127 706.536 332.767 705.772 333.75L679.005 368.224L673.5 382.966Z" fill="#2F2E41"/>
<path d="M788.779 55.2392C788.779 55.2392 772.536 40.6686 750.693 68.1286C728.85 95.5886 694.685 109.038 686.844 119.686C686.844 119.686 719.328 106.236 730.53 100.632C741.732 95.0282 741.172 96.149 741.172 96.149C741.172 96.149 726.049 106.797 723.249 117.445C720.449 128.092 722.689 137.059 717.648 147.707C712.607 158.354 813.982 154.992 813.982 154.992C813.982 154.992 824.064 137.619 821.263 119.686C818.463 101.753 820.143 57.4808 788.779 55.2392Z" fill="#2F2E41"/>
<path d="M756.853 98.3906C756.853 98.3906 760.773 125.851 743.971 132.015C727.168 138.18 733.329 146.586 733.329 146.586L758.533 158.915L785.417 150.509L794.378 137.059C794.378 137.059 779.816 133.696 783.737 123.609C787.657 113.522 788.777 110.159 788.777 110.159L756.853 98.3906Z" fill="#FFB9B9"/>
<path opacity="0.1" d="M756.853 98.3906C756.853 98.3906 760.773 125.851 743.971 132.015C727.168 138.18 733.329 146.586 733.329 146.586L758.533 158.915L785.417 150.509L794.378 137.059C794.378 137.059 779.816 133.696 783.737 123.609C787.657 113.522 788.777 110.159 788.777 110.159L756.853 98.3906Z" fill="black"/>
<path d="M827.424 176.848C827.424 176.848 823.504 228.405 824.624 230.647C825.744 232.888 824.624 310.785 824.624 310.785C824.624 310.785 832.465 352.816 822.384 355.057C812.302 357.299 814.542 307.983 814.542 307.983L804.461 242.976L805.581 178.529L827.424 176.848Z" fill="#FFB9B9"/>
<path opacity="0.1" d="M827.424 176.848C827.424 176.848 823.504 228.405 824.624 230.647C825.744 232.888 824.624 310.785 824.624 310.785C824.624 310.785 832.465 352.816 822.384 355.057C812.302 357.299 814.542 307.983 814.542 307.983L804.461 242.976L805.581 178.529L827.424 176.848Z" fill="black"/>
<path d="M718.209 332.08C718.209 332.08 699.726 402.131 700.286 436.316C700.846 470.501 708.127 518.136 708.127 518.136C708.127 518.136 709.247 538.871 707.567 541.112C705.887 543.354 715.968 552.881 715.968 552.881L726.61 546.716L730.53 542.233V538.31C730.53 538.31 724.369 519.256 729.41 504.125C734.451 488.994 737.251 450.887 732.211 439.118L766.936 336.003L718.209 332.08Z" fill="#FFB9B9"/>
<path d="M717.086 543.914C717.086 543.914 710.365 535.508 705.884 538.31C701.403 541.112 694.122 560.166 694.122 560.166C694.122 560.166 668.919 584.264 686.841 585.385C704.764 586.505 712.605 580.341 714.845 575.858C717.086 571.374 737.809 559.606 737.809 559.606C737.809 559.606 735.568 538.31 732.208 537.75C728.847 537.189 723.806 546.156 723.806 546.156L717.086 543.914Z" fill="#2F2E41"/>
<path d="M779.255 336.564V406.055C779.32 414.487 779.881 422.907 780.935 431.273C782.616 443.602 771.414 535.509 771.414 535.509L772.534 551.761L786.536 550.64L788.216 536.63L808.379 474.985C808.379 474.985 815.1 437.438 811.74 423.427C808.379 409.417 829.102 319.752 829.102 319.752L779.255 336.564Z" fill="#FFB9B9"/>
<path d="M768.059 547.837L772.207 546.935C772.207 546.935 775.34 539.991 779.261 541.673C782.02 542.946 784.633 544.513 787.057 546.347L788.782 549.518C788.782 549.518 792.703 557.924 797.743 563.529C802.784 569.133 808.385 581.462 799.984 582.582C791.583 583.703 780.381 584.264 777.02 581.462C773.66 578.66 775.9 574.176 772.54 573.055C769.179 571.935 766.379 568.572 766.939 567.451C767.499 566.331 768.059 547.837 768.059 547.837Z" fill="#2F2E41"/>
<path d="M779.259 119.686C794.106 119.686 806.143 107.643 806.143 92.7863C806.143 77.9301 794.106 65.8867 779.259 65.8867C764.411 65.8867 752.375 77.9301 752.375 92.7863C752.375 107.643 764.411 119.686 779.259 119.686Z" fill="#FFB9B9"/>
<path d="M732.211 136.498L739.609 133.914C739.609 133.914 736.692 138.74 752.374 141.542C768.056 144.344 784.297 145.336 791.579 136.154C791.579 136.154 794.38 134.817 798.3 138.74C802.221 142.663 804.461 141.542 804.461 141.542L801.661 156.113L796.06 183.012L788.779 203.187L768.056 198.704L745.653 182.452L737.252 160.596V140.421L732.211 136.498Z" fill="#00BFA6"/>
<path d="M800.537 144.343L806.138 140.42C806.138 140.42 825.181 143.783 826.301 152.749L811.739 180.77C814.709 188.566 814.508 197.217 811.179 204.867C805.578 217.756 806.138 220.559 806.138 220.559L802.217 237.371L731.087 242.975C731.087 242.975 728.287 236.25 727.166 235.129C726.046 234.008 726.046 230.085 727.166 230.085C728.287 230.085 727.166 228.404 726.046 226.723C724.926 225.042 724.366 224.481 726.046 222.24C727.727 219.998 723.246 199.823 723.246 199.823V177.968L704.203 152.749C704.203 152.749 710.924 142.662 714.285 141.541C717.645 140.42 733.631 136 733.631 136L737.248 141.329L742.289 181.89L749.57 206.548L780.227 201.336L792.136 181.33L799.977 157.793L800.537 144.343Z" fill="#00BFA6"/>
<path d="M821.822 149.387L826.303 152.749C826.303 152.749 830.224 184.132 829.103 186.374C827.983 188.615 808.381 190.857 807.82 189.736C807.26 188.615 821.822 149.387 821.822 149.387Z" fill="#00BFA6"/>
<path d="M700.284 183.572C700.284 183.572 704.205 235.13 703.085 237.371C701.965 239.613 703.085 317.51 703.085 317.51C703.085 317.51 695.244 359.54 705.325 361.782C715.407 364.024 713.166 314.708 713.166 314.708L723.248 249.7L722.128 185.253L700.284 183.572Z" fill="#FFB9B9"/>
<path d="M729.41 133.697L735.011 170.684C735.011 170.684 729.97 225.604 731.09 236.812L732.21 240.174C732.21 240.174 729.97 239.053 729.41 241.295C728.85 243.537 729.41 250.822 729.41 250.822C729.41 250.822 726.049 254.184 724.929 272.678C723.809 291.171 710.367 335.444 715.408 337.125C720.449 338.806 750.693 347.212 766.935 345.531C783.178 343.85 841.426 324.236 840.866 319.192C840.306 314.148 812.302 242.976 812.302 242.976C812.302 242.976 807.261 234.57 807.261 233.449C807.261 232.329 813.982 227.845 812.302 223.362C810.622 218.879 801.66 171.804 801.66 171.804L807.821 138.18L799.42 135.938L793.259 168.442C793.259 168.442 769.176 180.211 743.972 169.563L738.371 131.455L729.41 133.697Z" fill="#2F2E41"/>
<path d="M708.685 151.068L704.205 152.75C704.205 152.75 695.804 188.055 698.044 188.055C700.284 188.055 727.168 191.418 727.168 190.297C727.168 189.176 722.127 161.716 722.127 161.716L708.685 151.068Z" fill="#00BFA6"/>
<path d="M757.977 69.2492C757.977 69.2492 799.423 97.83 810.624 84.9406C821.826 72.0512 791.021 60.8431 791.021 60.8431L765.258 58.041L757.977 69.2492Z" fill="#2F2E41"/>
<path d="M112.867 0V546.826H582.572V0H112.867ZM137.929 501.527C136.33 501.527 134.767 501.052 133.437 500.163C132.108 499.274 131.072 498.011 130.46 496.533C129.848 495.055 129.688 493.428 130 491.859C130.312 490.29 131.082 488.849 132.212 487.718C133.343 486.586 134.783 485.816 136.352 485.504C137.92 485.192 139.545 485.352 141.023 485.964C142.5 486.576 143.762 487.613 144.651 488.943C145.539 490.274 146.013 491.838 146.013 493.437C146.013 495.583 145.162 497.64 143.645 499.157C142.129 500.674 140.073 501.527 137.929 501.527ZM137.929 461.89C136.33 461.89 134.767 461.415 133.437 460.527C132.108 459.638 131.072 458.374 130.46 456.896C129.848 455.418 129.688 453.792 130 452.223C130.312 450.653 131.082 449.212 132.212 448.081C133.343 446.949 134.783 446.179 136.352 445.867C137.92 445.555 139.545 445.715 141.023 446.327C142.5 446.94 143.762 447.976 144.651 449.307C145.539 450.637 146.013 452.201 146.013 453.801C146.013 455.946 145.162 458.004 143.645 459.521C142.129 461.038 140.073 461.89 137.929 461.89ZM137.929 423.062C136.33 423.062 134.767 422.588 133.437 421.699C132.108 420.81 131.072 419.546 130.46 418.068C129.848 416.59 129.688 414.964 130 413.395C130.312 411.826 131.082 410.384 132.212 409.253C133.343 408.122 134.783 407.351 136.352 407.039C137.92 406.727 139.545 406.887 141.023 407.499C142.5 408.112 143.762 409.148 144.651 410.479C145.539 411.809 146.013 413.373 146.013 414.973C146.013 417.118 145.162 419.176 143.645 420.693C142.129 422.21 140.073 423.062 137.929 423.062ZM137.929 383.425C136.33 383.425 134.767 382.951 133.437 382.062C132.108 381.173 131.072 379.91 130.46 378.432C129.848 376.953 129.688 375.327 130 373.758C130.312 372.189 131.082 370.747 132.212 369.616C133.343 368.485 134.783 367.714 136.352 367.402C137.92 367.09 139.545 367.25 141.023 367.863C142.5 368.475 143.762 369.512 144.651 370.842C145.539 372.172 146.013 373.736 146.013 375.336C146.013 377.481 145.162 379.539 143.645 381.056C142.129 382.573 140.073 383.425 137.929 383.425ZM137.929 343.788C136.33 343.788 134.767 343.314 133.437 342.425C132.108 341.536 131.072 340.273 130.46 338.795C129.848 337.317 129.688 335.69 130 334.121C130.312 332.552 131.082 331.111 132.212 329.979C133.343 328.848 134.783 328.078 136.352 327.766C137.92 327.453 139.545 327.614 141.023 328.226C142.5 328.838 143.762 329.875 144.651 331.205C145.539 332.535 146.013 334.099 146.013 335.699C146.013 337.845 145.162 339.902 143.645 341.419C142.129 342.936 140.073 343.788 137.929 343.788ZM137.929 304.961C136.33 304.961 134.767 304.486 133.437 303.597C132.108 302.708 131.072 301.445 130.46 299.967C129.848 298.489 129.688 296.862 130 295.293C130.312 293.724 131.082 292.283 132.212 291.151C133.343 290.02 134.783 289.25 136.352 288.938C137.92 288.626 139.545 288.786 141.023 289.398C142.5 290.01 143.762 291.047 144.651 292.377C145.539 293.708 146.013 295.271 146.013 296.871C146.013 299.017 145.162 301.074 143.645 302.591C142.129 304.108 140.073 304.961 137.929 304.961ZM137.929 265.324C136.33 265.324 134.767 264.849 133.437 263.96C132.108 263.072 131.072 261.808 130.46 260.33C129.848 258.852 129.688 257.226 130 255.656C130.312 254.087 131.082 252.646 132.212 251.515C133.343 250.383 134.783 249.613 136.352 249.301C137.92 248.989 139.545 249.149 141.023 249.761C142.5 250.373 143.762 251.41 144.651 252.741C145.539 254.071 146.013 255.635 146.013 257.235C146.013 259.38 145.162 261.437 143.645 262.954C142.129 264.471 140.073 265.324 137.929 265.324ZM137.929 225.687C136.33 225.687 134.767 225.213 133.437 224.324C132.108 223.435 131.072 222.172 130.46 220.693C129.848 219.215 129.688 217.589 130 216.02C130.312 214.451 131.082 213.009 132.212 211.878C133.343 210.747 134.783 209.976 136.352 209.664C137.92 209.352 139.545 209.512 141.023 210.124C142.5 210.737 143.762 211.773 144.651 213.104C145.539 214.434 146.013 215.998 146.013 217.598C146.013 219.743 145.162 221.801 143.645 223.318C142.129 224.835 140.073 225.687 137.929 225.687ZM137.929 186.859C136.33 186.859 134.767 186.385 133.437 185.496C132.108 184.607 131.072 183.344 130.46 181.866C129.848 180.387 129.688 178.761 130 177.192C130.312 175.623 131.082 174.181 132.212 173.05C133.343 171.919 134.783 171.148 136.352 170.836C137.92 170.524 139.545 170.684 141.023 171.297C142.5 171.909 143.762 172.946 144.651 174.276C145.539 175.606 146.013 177.17 146.013 178.77C146.013 180.915 145.162 182.973 143.645 184.49C142.129 186.007 140.073 186.859 137.929 186.859ZM137.929 147.222C136.33 147.222 134.767 146.748 133.437 145.859C132.108 144.97 131.072 143.707 130.46 142.229C129.848 140.751 129.688 139.124 130 137.555C130.312 135.986 131.082 134.545 132.212 133.413C133.343 132.282 134.783 131.512 136.352 131.199C137.92 130.887 139.545 131.048 141.023 131.66C142.5 132.272 143.762 133.309 144.651 134.639C145.539 135.969 146.013 137.533 146.013 139.133C146.013 141.279 145.162 143.336 143.645 144.853C142.129 146.37 140.073 147.222 137.929 147.222ZM137.929 107.586C136.33 107.586 134.767 107.111 133.437 106.222C132.108 105.333 131.072 104.07 130.46 102.592C129.848 101.114 129.688 99.4874 130 97.9183C130.312 96.3491 131.082 94.9078 132.212 93.7765C133.343 92.6452 134.783 91.8748 136.352 91.5627C137.92 91.2506 139.545 91.4108 141.023 92.023C142.5 92.6353 143.762 93.6721 144.651 95.0023C145.539 96.3326 146.013 97.8965 146.013 99.4964C146.013 101.642 145.162 103.699 143.645 105.216C142.129 106.733 140.073 107.586 137.929 107.586ZM137.929 69.5666C136.33 69.5666 134.767 69.0922 133.437 68.2033C132.108 67.3145 131.072 66.0511 130.46 64.573C129.848 63.0949 129.688 61.4685 130 59.8993C130.312 58.3302 131.082 56.8889 132.212 55.7576C133.343 54.6263 134.783 53.8559 136.352 53.5437C137.92 53.2316 139.545 53.3918 141.023 54.0041C142.5 54.6163 143.762 55.6531 144.651 56.9834C145.539 58.3136 146.013 59.8776 146.013 61.4775C146.013 63.6228 145.162 65.6803 143.645 67.1973C142.129 68.7143 140.073 69.5666 137.929 69.5666Z" fill="#F2F2F2"/>
<path opacity="0.3" d="M582.572 41.528V39.9102H168.452V0H166.835V39.9102H112.867V41.528H166.835V79.2736H112.867V80.8914H166.835V118.637H112.867V120.255H166.835V157.999H112.867V159.617H166.835V197.362H112.867V198.98H166.835V236.725H112.867V238.343H166.835V276.088H112.867V277.706H166.835V315.451H112.867V317.069H166.835V354.814H112.867V356.432H166.835V394.176H112.867V395.794H166.835V433.54H112.867V435.158H166.835V472.902H112.867V474.52H166.835V512.265H112.867V513.883H166.835V546.826H168.452V513.883H582.572V512.265H168.452V474.52H582.572V472.902H168.452V435.158H582.572V433.54H168.452V395.794H582.572V394.176H168.452V356.432H582.572V354.814H168.452V317.069H582.572V315.451H168.452V277.706H582.572V276.088H168.452V238.343H582.572V236.725H168.452V198.98H582.572V197.362H168.452V159.617H582.572V157.999H168.452V120.255H582.572V118.637H168.452V80.8914H582.572V79.2736H168.452V41.528H582.572Z" fill="#3F3D56"/>
<path d="M217.797 140.087C212.913 143.872 207.665 147.164 202.131 149.912C198.555 151.688 194.587 153.269 190.664 152.524C186.742 151.779 183.22 147.768 184.417 143.957C184.833 142.845 185.533 141.861 186.449 141.105C187.364 140.349 188.462 139.847 189.632 139.649C191.987 139.287 194.396 139.634 196.552 140.649C200.501 142.341 203.796 145.266 205.945 148.987C207.041 150.897 207.9 153.087 209.72 154.325C211.186 155.159 212.829 155.634 214.513 155.713C218.478 156.209 222.546 156.7 226.43 155.762C230.314 154.825 234.035 152.136 235.025 148.263" stroke="#3F3D56" stroke-width="2" stroke-miterlimit="10"/>
<path d="M247.756 121.631C248.063 133.512 247.897 145.392 247.258 157.272L255.683 155.68C258.789 155.092 262.322 154.196 263.726 151.362C265.034 148.72 263.789 145.385 261.611 143.4C259.432 141.414 256.529 140.467 253.721 139.573L249.122 138.108" stroke="#3F3D56" stroke-width="2" stroke-miterlimit="10"/>
<path d="M293.168 134.729C290.092 134.302 286.953 133.894 283.896 134.442C280.839 134.99 277.823 136.656 276.414 139.425C273.81 144.539 277.799 150.838 282.853 153.553C287.061 155.794 291.909 156.524 296.589 155.622" stroke="#3F3D56" stroke-width="2" stroke-miterlimit="10"/>
<path d="M225.529 94.0376C217.793 101.316 210.057 101.316 202.32 94.0376C199.182 91.0241 196.692 87.4006 195.004 83.3897C193.315 79.3787 192.464 75.0648 192.501 70.7127V0H235.349V70.7127C235.386 75.0648 234.535 79.3787 232.846 83.3897C231.158 87.4007 228.668 91.0241 225.529 94.0376Z" fill="#00BFA6"/>
<path d="M465.104 345.188C465.104 411.382 425.781 434.492 377.267 434.492C376.143 434.492 375.019 434.476 373.904 434.452C371.656 434.403 369.425 434.298 367.226 434.144C323.441 431.046 289.43 406.747 289.43 345.188C289.43 281.494 370.775 201.113 376.903 195.151C376.903 195.15 376.903 195.149 376.904 195.148C376.904 195.147 376.905 195.146 376.905 195.145C376.906 195.144 376.907 195.144 376.908 195.143C376.909 195.143 376.91 195.143 376.911 195.143C377.146 194.908 377.267 194.795 377.267 194.795C377.267 194.795 465.104 279.003 465.104 345.188Z" fill="#00BFA6"/>
<path d="M374.07 424.365L406.198 379.454L373.989 429.299L373.909 434.452C371.661 434.403 369.43 434.298 367.231 434.144L370.691 367.927L370.667 367.409L370.723 367.32L371.055 361.059L338.766 311.092L371.152 356.367L371.233 357.694L373.844 307.663L346.203 256.03L374.183 298.886L376.908 195.151L376.916 194.795V195.143L376.463 276.94L403.983 244.511L376.35 283.986L375.622 328.783L401.323 285.79L375.517 335.376L375.113 360.283L412.406 300.439L374.968 368.97L374.07 424.365Z" fill="#3F3D56"/>
</g>
<defs>
<clipPath id="clip0_1_678">
<rect width="871" height="609" fill="white"/>
</clipPath>
</defs>
</svg>
